<?xml version="1.0" encoding="utf-8"?>
<!-- Generator: Adobe Illustrator 19.1.0, SVG Export Plug-In . SVG Version: 6.00 Build 0)  -->
<svg version="1.1" id="Layer_1" xmlns="http://www.w3.org/2000/svg" xmlns:xlink="http://www.w3.org/1999/xlink" x="0px" y="0px"
	 viewBox="0 0 44.2 44.2" enable-background="new 0 0 44.2 44.2" xml:space="preserve">
<circle fill="#EEEEF0" cx="22.1" cy="22.1" r="22.1"/>
<path fill-rule="evenodd" clip-rule="evenodd" fill="#8F9295" d="M19.8,14.1c-1,0.8-1.3,2-1.2,2.6c0.1,0.8,0.2,1.8,0.2,1.8
	s-0.3,0.2-0.3,0.9c0.1,1.7,0.7,1,0.8,1.7c0.3,1.8,0.9,1.5,0.9,2.5c0,1.7-0.7,2.4-2.8,3.4c-2.1,0.9-4.3,2.1-4.3,4.1v1h18v-1
	c0-2-2.2-3.2-4.3-4.1C24.6,26,24,25.3,24,23.6c0-1,0.6-0.7,0.9-2.5c0.1-0.8,0.7,0,0.8-1.7c0-0.7-0.3-0.9-0.3-0.9s0.2-1,0.2-1.8
	c0.1-0.8-0.4-2.6-2.3-3.1c-0.3-0.3-0.6-0.9,0.5-1.4C21.5,12,21,13.2,19.8,14.1z"/>
</svg>
